Coordinates
version=1
nRows=10
nColumns=40
inDegrees=yes

Units are S.I. units (second, meters, Newtons, ...)
Angles are in degrees.

endheader
time	pelvis_tilt	pelvis_list	pelvis_rotation	pelvis_tx	pelvis_ty	pelvis_tz	hip_flexion_r	hip_adduction_r	hip_rotation_r	knee_angle_r	knee_angle_r_beta	ankle_angle_r	subtalar_angle_r	mtp_angle_r	hip_flexion_l	hip_adduction_l	hip_rotation_l	knee_angle_l	knee_angle_l_beta	ankle_angle_l	subtalar_angle_l	mtp_angle_l	lumbar_extension	lumbar_bending	lumbar_rotation	arm_flex_r	arm_add_r	arm_rot_r	elbow_flex_r	pro_sup_r	wrist_flex_r	wrist_dev_r	arm_flex_l	arm_add_l	arm_rot_l	elbow_flex_l	pro_sup_l	wrist_flex_l	wrist_dev_l
     20.69000000	     -3.15592611	     -6.79143731	      0.12091703	      0.85254666	      0.93064061	      0.49678353	     10.44607615	      6.72929272	    -13.30795219	     14.45019534	     14.45019534	      9.37459023	     -0.50138326	     -3.46209107	     32.63868500	    -13.79504855	      2.30322374	     65.30907200	     65.30907200	      6.77561966	    -19.21970944	     17.59232222	     -8.60517054	      6.78636166	      3.01828189	     16.49648511	    -15.38336193	     -4.92212882	     52.07810557	     45.72707755	      0.00000000	      0.00000000	      8.18811582	     -6.95289568	     -2.24311902	     26.43223452	     45.56650236	      0.00000000	      0.00000000
     20.70192857	     -3.24150736	     -6.69151452	      0.46095792	      0.85129071	      0.93094199	      0.49716219	      9.83920880	      6.73659937	    -13.28749794	     13.93435344	     13.93435344	      9.55618581	     -0.67298319	     -3.43883001	     33.70819618	    -13.75296387	      1.69748117	     62.47504400	     62.47504400	      7.63835037	    -19.30332717	     17.81037929	     -8.65448001	      6.62781981	      2.73749517	     18.37185141	    -15.40262458	     -5.15666050	     53.94261077	     45.67726904	      0.00000000	      0.00000000	      7.04594561	     -6.84854144	     -2.21130982	     25.82542414	     45.54982279	      0.00000000	      0.00000000
     20.71385714	     -3.46583568	     -6.77431575	      0.80661499	      0.84995448	      0.93074415	      0.49752727	      9.58876324	      6.87344351	    -13.46523176	     13.80105930	     13.80105930	      9.84306961	     -0.83324848	     -3.52130879	     34.77163415	    -13.73832388	      1.29286983	     59.38121445	     59.38121445	      8.40392805	    -19.30109690	     17.89768869	     -8.48073781	      6.67342646	      3.19974374	     19.95094231	    -15.93037124	     -5.36016649	     54.76499748	     45.66467105	      0.00000000	      0.00000000	      6.25201210	     -6.58598180	     -2.17892442	     25.54219297	     45.53113351	      0.00000000	      0.00000000
     20.72578571	     -3.47068310	     -6.33768413	      1.08952256	      0.84880275	      0.93129614	      0.49755634	      8.77309576	      6.52941212	    -13.35864681	     13.06828267	     13.06828267	     10.00158009	     -0.83143709	     -3.44442262	     35.08234089	    -13.08110433	      0.55299778	     55.72949093	     55.72949093	      8.91448425	    -19.31028668	     18.23892531	     -8.71446298	      6.16728467	      2.38396843	     22.08978807	    -15.60652541	     -5.57467664	     57.45653903	     45.58717172	      0.00000000	      0.00000000	      4.89797796	     -6.57855527	     -2.05155767	     24.69178798	     45.49333826	      0.00000000	      0.00000000
     20.73771429	     -3.58281572	     -6.21224715	      1.42224681	      0.84759125	      0.93129234	      0.49745540	      8.25858033	      6.44798173	    -13.49419392	     12.66318298	     12.66318298	     10.21013713	     -0.79296449	     -3.53607825	     35.49284722	    -12.47633907	      0.38449051	     52.05717892	     52.05717892	      9.26627213	    -19.24150470	     18.29142513	     -8.77739085	      6.07793362	      2.13981205	     23.71873482	    -15.71512163	     -5.80079400	     60.04091296	     45.51243584	      0.00000000	      0.00000000	      3.81308558	     -6.41722364	     -1.89595224	     24.15362897	     45.45435090	      0.00000000	      0.00000000
     20.74964286	     -3.79094553	     -6.01802452	      1.69905465	      0.84634663	      0.93110608	      0.49721114	      7.93282343	      6.26056296	    -13.59843173	     12.42083075	     12.42083075	     10.47090468	     -0.80364739	     -3.64061598	     35.82710853	    -11.66653179	      0.40119647	     48.25055969	     48.25055969	      9.37008843	    -19.05568338	     18.27053676	     -8.70619434	      5.88569943	      2.26852420	     25.31548591	    -16.08332690	     -6.07004009	     61.70780135	     45.47262172	      0.00000000	      0.00000000	      2.90074741	     -6.21754712	     -1.78555144	     23.79651612	     45.42156670	      0.00000000	      0.00000000
     20.76157143	     -3.92514162	     -5.87361754	      1.98525231	      0.84527174	      0.93082894	      0.49680330	      7.51203575	      6.07381595	    -14.06308993	     12.18042924	     12.18042924	     10.74340306	     -0.25931967	     -3.98815402	     35.87514567	    -10.85376797	      0.58858254	     44.23933811	     44.23933811	      8.52588402	    -18.74142928	     15.68895779	     -8.80400724	      5.80171572	      2.54435283	     25.95382135	    -16.53003247	     -6.79198040	     65.93959589	     45.35906203	      0.00000000	      0.00000000	      1.97644875	     -6.05698653	     -1.21287386	     23.67278240	     45.31748121	      0.00000000	      0.00000000
     20.77350000	     -4.06333078	     -5.74869944	      2.23244902	      0.84419817	      0.93050714	      0.49636581	      7.15447065	      5.93807543	    -14.20990497	     12.04098669	     12.04098669	     11.06614999	     -0.18816018	     -4.11293002	     35.87058928	    -10.01628320	      0.97507151	     40.33619636	     40.33619636	      8.00196339	    -18.12792507	     14.20879840	     -8.81810786	      5.72016558	      2.53303212	     27.52214174	    -16.55227750	     -7.42962469	     67.69680808	     45.33304663	      0.00000000	      0.00000000	      1.04110937	     -5.98652972	     -0.68176200	     23.29482147	     45.21887710	      0.00000000	      0.00000000
     20.78542857	     -4.26212942	     -5.58297406	      2.45183808	      0.84317354	      0.93000763	      0.49579126	      6.87213655	      5.75088259	    -14.27582180	     11.92437480	     11.92437480	     11.37655656	     -0.25307057	     -4.21118228	     35.95075682	     -9.19610781	      1.36984972	     36.76138638	     36.76138638	      8.15626429	    -16.80102517	     14.18013943	     -8.70345977	      5.57827225	      2.74238711	     29.13258295	    -16.93463077	     -7.71582609	     68.62447874	     45.32034090	      0.00000000	      0.00000000	      0.23276321	     -5.78541733	     -0.58780258	     23.04972039	     45.18880061	      0.00000000	      0.00000000
     20.79735714	     -4.29385302	     -5.41981016	      2.67035759	      0.84242093	      0.92973400	      0.49515256	      6.38653562	      5.55578025	    -14.43596333	     11.82073663	     11.82073663	     11.75311176	     -0.06806883	     -4.33236784	     35.75137394	     -8.49637378	      1.59328873	     33.30543321	     33.30543321	      8.09030784	    -15.11359256	     13.62343475	     -8.77868091	      5.52827251	      2.58527206	     30.63052070	    -16.77290569	     -8.04008862	     70.11388756	     45.28969573	      0.00000000	      0.00000000	     -0.81393651	     -5.79335612	     -0.45692929	     22.83131603	     45.14842249	      0.00000000	      0.00000000
